<svg xmlns="http://www.w3.org/2000/svg" width="36" height="36" viewBox="0 0 36 36">
    <defs>
        <style>
            .cls-1{fill:none}.cls-2{fill:url(#linear-gradient)}
        </style>
        <linearGradient id="linear-gradient" x1=".5" x2=".5" y2="1" gradientUnits="objectBoundingBox">
            <stop offset="0" stop-color="#f5d500"/>
            <stop offset="1" stop-color="#6f5321"/>
        </linearGradient>
    </defs>
    <g id="Asar" transform="translate(509 -559)">
        <path id="Rectangle_1292" d="M0 0h36v36H0z" class="cls-1" data-name="Rectangle 1292" transform="translate(-509 559)"/>
        <g id="Group_3169" data-name="Group 3169" transform="translate(-505.4 564.04)">
            <path id="Subtraction_6" d="M4.953 24.887a1.04 1.04 0 0 1-.736-1.776l2.392-2.391a1.04 1.04 0 1 1 1.471 1.471l-2.391 2.391a1.033 1.033 0 0 1-.736.305zm4.273-5.2a7.432 7.432 0 0 1-1.626-2.37A7.336 7.336 0 0 1 7 14.4a7.4 7.4 0 0 1 14.41-2.389 6.062 6.062 0 0 0-.722-.042 4.335 4.335 0 0 0-3.031 1.022 6.622 6.622 0 0 0-1.523 2.341 2.48 2.48 0 0 0-3.377.14 2.506 2.506 0 0 0-.731 1.777 2.54 2.54 0 0 0 .037.429 3.929 3.929 0 0 0-1.661.684 4 4 0 0 0-1.176 1.328zM27.76 15.44h-2.37a5.551 5.551 0 0 0-.47-1.112 4.762 4.762 0 0 0-.7-.956 1.052 1.052 0 0 1 .161-.012h3.379a1.04 1.04 0 0 1 0 2.081zm-23.337 0H1.04a1.04 1.04 0 1 1 0-2.081h3.383a1.04 1.04 0 1 1 0 2.081zm17.032-7.055a1.04 1.04 0 0 1-.735-1.776l2.392-2.392a1.04 1.04 0 1 1 1.471 1.471l-2.392 2.393a1.033 1.033 0 0 1-.736.304zm-14.11 0a1.033 1.033 0 0 1-.736-.3L4.218 5.689a1.04 1.04 0 1 1 1.471-1.471l2.392 2.391a1.04 1.04 0 0 1-.736 1.776zM14.4 5.463a1.041 1.041 0 0 1-1.04-1.04V1.04a1.04 1.04 0 1 1 2.081 0v3.383a1.041 1.041 0 0 1-1.041 1.04z" class="cls-2" data-name="Subtraction 6"/>
            <g id="mobileme-logo-of-black-cloud" transform="translate(10.004 13.363)">
                <path id="MobileMe" d="M17.788 77.834a3.505 3.505 0 0 1-3.488 3.518H3.491a3.52 3.52 0 0 1-.549-6.993 2.244 2.244 0 0 1-.033-.38 2.221 2.221 0 0 1 2.214-2.229 2.189 2.189 0 0 1 1.43.529c.687-1.56 1.567-2.979 4.038-2.979 3 0 4.417 2.328 4.417 4.786 0 .1 0 .2-.011.305a3.513 3.513 0 0 1 2.791 3.443z" class="cls-2" transform="translate(0 -69.296)"/>
            </g>
        </g>
    </g>
</svg>
